<svg width="1000" height="1000" xmlns="http://www.w3.org/2000/svg">
 <metadata>Svg Vector Icons : http://www.onlinewebfonts.com/icon</metadata>

 <g>
  <title>background</title>
  <rect fill="none" id="canvas_background" height="402" width="582" y="-1" x="-1"/>
 </g>
 <g>
  <title>Layer 1</title>
  <g id="svg_1">
   <g id="svg_2">
    <path fill="#ffffff" id="svg_3" d="m924.3,700.4l0,222.3c0,37.3 -30.2,67.4 -67.4,67.4l-713.9,0c-37.2,0 -67.4,-30.1 -67.4,-67.4l0,-222.3c0,-37.2 30.2,-67.4 67.4,-67.4c37.2,0 67.4,30.2 67.4,67.4l0,154.9l579.2,0l0,-154.9c0,-37.2 30.2,-67.4 67.4,-67.4c37.2,0 67.3,30.2 67.3,67.4zm-471.9,57.7c13.2,13.2 30.4,19.7 47.6,19.7c17.3,0 34.5,-6.6 47.7,-19.7l202,-202c26.4,-26.3 26.4,-68.9 0,-95.2c-26.3,-26.3 -69,-26.3 -95.2,0l-87,87.1l0,-470.6c0,-37.2 -30.1,-67.4 -67.4,-67.4c-37.2,0 -67.4,30.2 -67.4,67.4l0,470.6l-87.1,-87.1c-26.3,-26.3 -69,-26.3 -95.2,0c-26.3,26.3 -26.3,69 0,95.2l202,202z"/>
   </g>
   <g id="svg_4"/>
   <g id="svg_5"/>
   <g id="svg_6"/>
   <g id="svg_7"/>
   <g id="svg_8"/>
   <g id="svg_9"/>
   <g id="svg_10"/>
   <g id="svg_11"/>
   <g id="svg_12"/>
   <g id="svg_13"/>
   <g id="svg_14"/>
   <g id="svg_15"/>
   <g id="svg_16"/>
   <g id="svg_17"/>
   <g id="svg_18"/>
  </g>
 </g>
</svg>